<?xml version="1.0" standalone="no"?>
<!DOCTYPE svg PUBLIC "-//W3C//DTD SVG 20010904//EN"
 "http://www.w3.org/TR/2001/REC-SVG-20010904/DTD/svg10.dtd">
<svg version="1.0" xmlns="http://www.w3.org/2000/svg"
 width="145.000000pt" height="145.000000pt" viewBox="0 0 145.000000 145.000000"
 preserveAspectRatio="xMidYMid meet">
<metadata>
Created by potrace 1.11, written by Peter Selinger 2001-2013
</metadata>
<g transform="translate(0.000000,145.000000) scale(0.100000,-0.100000)"
fill="#000000" stroke="none">
<path d="M1135 1440 c61 -3 -125 -4 -412 -2 l-521 4 -1 -706 c-1 -623 1 -706
14 -706 8 0 15 -4 15 -10 0 -5 -7 -7 -15 -4 -8 4 -15 1 -15 -5 0 -8 148 -11
525 -11 l525 0 0 725 0 725 -112 -2 -113 -2 110 -6z m-395 -150 c0 -5 -15 -10
-32 -9 -28 0 -30 2 -13 9 28 12 45 12 45 0z m80 -41 c0 -5 11 -14 25 -21 41
-18 65 -128 28 -128 -17 -1 -17 -1 0 -11 23 -14 22 -55 -5 -126 -26 -70 -35
-83 -58 -83 -10 0 -20 -9 -23 -19 -6 -24 -47 -51 -86 -57 -42 -7 -61 24 -61
99 l0 59 40 -36 c22 -20 44 -36 49 -36 5 0 16 -7 25 -15 9 -9 17 -11 21 -5 3
5 -12 18 -33 29 -48 24 -52 34 -52 120 0 75 4 85 31 70 13 -6 19 -6 19 1 0 5
-7 10 -15 10 -9 0 -18 6 -21 14 -3 9 -12 12 -21 9 -11 -4 -14 -2 -9 5 3 6 -2
15 -11 21 -16 9 -16 11 5 12 12 1 27 3 32 4 6 1 16 3 23 4 7 0 13 9 13 20 0
13 -6 17 -19 13 -23 -6 -40 17 -25 35 6 7 14 11 18 8 5 -3 11 -1 15 5 3 5 15
10 26 10 13 0 18 -4 13 -12 -4 -6 -3 -8 4 -4 6 3 15 -2 21 -11 5 -10 12 -15
16 -12 3 4 -6 20 -20 37 l-26 31 31 -15 c16 -9 30 -20 30 -25z m-143 -19 c-1
-11 -7 -20 -14 -20 -16 0 -17 12 -1 28 16 16 17 15 15 -8z m244 -457 c52 -54
102 -114 111 -133 9 -20 18 -75 21 -130 4 -75 3 -87 -5 -60 -19 64 -21 66 -29
25 -4 -22 -14 -78 -23 -124 -8 -46 -13 -87 -11 -92 3 -4 0 -11 -6 -15 -6 -3
-18 -22 -26 -41 -25 -61 -25 -28 0 54 14 43 28 112 32 153 l7 75 -23 -30 c-22
-28 -52 -57 -123 -117 -36 -30 -64 -118 -35 -111 9 3 19 -3 23 -12 4 -12 0
-18 -14 -22 -11 -3 -17 -10 -13 -17 3 -6 -3 -3 -15 8 -11 10 -24 31 -27 47 -6
28 -25 41 -25 17 0 -24 -53 -68 -82 -68 -15 0 -28 5 -28 10 0 6 -16 10 -35 10
-19 0 -35 4 -35 8 0 5 -11 14 -25 20 -39 18 -15 45 69 76 106 40 146 58 153
69 3 5 -4 4 -15 -2 -11 -6 -29 -8 -39 -5 -13 4 -14 3 -5 -4 38 -26 -116 -18
-191 10 -21 8 -31 8 -40 -1 -15 -15 -27 -14 -27 4 0 9 -6 12 -15 9 -26 -10
-19 49 9 75 44 42 204 65 285 41 33 -9 33 -9 16 10 -10 11 -13 20 -7 20 13 0
4 31 -12 42 -6 4 -5 12 4 23 11 13 11 18 0 28 -10 9 -11 9 -6 0 4 -7 2 -13 -4
-13 -6 0 -9 -4 -6 -9 10 -16 -18 -19 -75 -10 -105 18 -97 10 -87 81 4 35 11
72 14 83 7 21 43 65 54 65 4 0 1 -30 -5 -67 -23 -122 -26 -149 -17 -133 5 8
17 57 27 108 17 89 18 92 36 76 26 -23 84 -12 122 23 19 18 28 22 24 11 -14
-39 -28 -100 -24 -104 2 -3 13 27 23 66 10 38 21 70 24 70 4 0 49 -44 101 -97z
m-101 -634 c0 -5 -6 -8 -12 -6 -7 1 -12 -6 -10 -15 1 -9 -2 -19 -8 -23 -6 -4
-10 6 -10 24 0 16 6 31 13 34 15 5 27 -1 27 -14z m40 -25 c0 -24 -37 -67 -46
-53 -4 7 0 17 9 24 10 7 17 20 17 29 0 9 5 16 10 16 6 0 10 -7 10 -16z m39
-56 c1 -18 -6 -31 -19 -38 -17 -9 -20 -8 -20 14 0 14 5 28 10 31 6 4 10 12 9
18 -1 7 -1 19 1 27 2 23 18 -19 19 -52z m-99 -11 c0 -5 -4 -5 -10 -2 -5 3 -10
14 -10 23 0 15 2 15 10 2 5 -8 10 -19 10 -23z m-267 -34 c-18 -2 -48 -2 -65 0
-18 2 -4 4 32 4 36 0 50 -2 33 -4z m90 0 c-7 -2 -21 -2 -30 0 -10 3 -4 5 12 5
17 0 24 -2 18 -5z m104 1 c-3 -3 -12 -4 -19 -1 -8 3 -5 6 6 6 11 1 17 -2 13
-5z m60 0 c-3 -3 -12 -4 -19 -1 -8 3 -5 6 6 6 11 1 17 -2 13 -5z"/>
<path d="M755 1220 c-3 -6 1 -7 9 -4 18 7 21 14 7 14 -6 0 -13 -4 -16 -10z"/>
<path d="M758 1173 c7 -3 16 -2 19 1 4 3 -2 6 -13 5 -11 0 -14 -3 -6 -6z"/>
<path d="M760 1090 c0 -5 5 -10 10 -10 6 0 10 5 10 10 0 6 -4 10 -10 10 -5 0
-10 -4 -10 -10z"/>
<path d="M752 695 c-6 -14 -7 -25 -2 -25 9 0 25 39 18 46 -3 2 -10 -7 -16 -21z"/>
<path d="M861 659 c-10 -27 -3 -86 10 -95 5 -3 9 -14 9 -25 0 -17 -22 -26 -54
-20 -5 1 -6 -8 -2 -21 3 -13 6 -27 6 -32 0 -5 7 -2 16 5 14 11 19 10 38 -12
l22 -26 30 24 29 25 -35 -6 -35 -6 30 13 c17 8 33 12 38 10 4 -2 7 1 7 7 0 6
-14 13 -30 17 -17 3 -28 8 -25 11 2 3 0 11 -6 19 -9 10 -8 13 2 13 8 0 15 12
16 30 2 23 -2 30 -15 30 -10 0 -24 -6 -32 -12 -8 -7 -1 5 15 26 16 22 23 36
16 32 -6 -4 -18 -2 -26 4 -12 10 -16 8 -24 -11z"/>
<path d="M1001 555 c0 -11 -4 -31 -7 -45 -5 -19 -4 -22 5 -14 7 6 11 26 8 45
-2 19 -5 25 -6 14z"/>
<path d="M778 523 c-16 -4 -17 -6 -2 -20 13 -14 17 -14 25 -2 17 27 13 32 -23
22z"/>
<path d="M650 462 c24 -15 110 -25 110 -13 0 6 -1 11 -2 11 -45 8 -119 9 -108
2z"/>
<path d="M830 440 c0 -5 4 -10 10 -10 5 0 7 -14 4 -32 l-6 -33 23 24 c17 16
20 25 12 28 -7 3 -13 11 -13 19 0 8 -7 14 -15 14 -8 0 -15 -4 -15 -10z"/>
<path d="M665 406 c47 -17 115 -20 115 -6 0 6 -10 10 -22 10 -13 0 -48 2 -78
5 l-55 5 40 -14z"/>
<path d="M625 370 c28 -12 47 -12 40 0 -3 6 -18 10 -33 9 -24 0 -25 -1 -7 -9z"/>
</g>
</svg>
